<svg width="92" height="27" viewBox="0 0 92 27" fill="none" xmlns="http://www.w3.org/2000/svg">
<path d="M9.30198 21.422C7.87708 21.422 6.59266 21.2044 5.44873 20.7692C4.3048 20.3143 3.33145 19.6516 2.52869 18.7813C1.72593 17.8912 1.10379 16.7934 0.662277 15.4879C0.220759 14.1626 0 12.6198 0 10.8593C0 9.11868 0.220759 7.57582 0.662277 6.23077C1.10379 4.86593 1.72593 3.72857 2.52869 2.81868C3.33145 1.88901 4.3048 1.18681 5.44873 0.712087C6.59266 0.237362 7.87708 0 9.30198 0C11.2487 0 12.8542 0.395605 14.1185 1.18681C15.3829 1.95824 16.3964 3.18462 17.159 4.86593L13.2154 6.88352C12.9345 6.01319 12.4929 5.32088 11.8909 4.80659C11.3089 4.27253 10.4459 4.00549 9.30198 4.00549C7.95735 4.00549 6.87363 4.44066 6.0508 5.31099C5.24804 6.16154 4.84666 7.40769 4.84666 9.04945V12.3725C4.84666 14.0143 5.24804 15.2703 6.0508 16.1407C6.87363 16.9912 7.95735 17.4165 9.30198 17.4165C10.4258 17.4165 11.3189 17.1198 11.9812 16.5264C12.6635 15.9132 13.1653 15.1813 13.4864 14.3308L17.2192 16.467C16.4365 18.0495 15.4029 19.2758 14.1185 20.1462C12.8542 20.9967 11.2487 21.422 9.30198 21.422Z" fill="#55C2FF"/>
<path d="M20.1804 21.0659V5.48901H24.6357V8.87143H24.7862C24.8665 8.43626 25.007 8.02088 25.2077 7.62528C25.4084 7.20989 25.6693 6.84396 25.9904 6.52747C26.3315 6.21099 26.7329 5.96374 27.1945 5.78571C27.6561 5.58791 28.1979 5.48901 28.8201 5.48901H29.6028V9.58352H28.4889C27.1845 9.58352 26.2111 9.75165 25.5689 10.0879C24.9468 10.4242 24.6357 11.0473 24.6357 11.9571V21.0659H20.1804Z" fill="#55C2FF"/>
<path d="M42.2201 5.48901H46.3744L40.2935 23.4692C39.8921 24.6758 39.3202 25.5659 38.5776 26.1396C37.8551 26.7132 36.8115 27 35.4469 27H32.6773V23.5879H35.6576L36.1994 21.867L30.6604 5.48901H35.0856L37.4036 12.7582L38.5475 17.2681H38.7281L39.9022 12.7582L42.2201 5.48901Z" fill="#55C2FF"/>
<path d="M48.6376 5.48901H53.0929V8.1H53.2434C53.4642 7.22967 53.9659 6.51758 54.7486 5.96374C55.5514 5.40989 56.4645 5.13297 57.488 5.13297C59.4949 5.13297 61.0101 5.82528 62.0336 7.20989C63.0572 8.59451 63.5689 10.6121 63.5689 13.2626C63.5689 15.9132 63.0572 17.9407 62.0336 19.3451C61.0101 20.7297 59.4949 21.422 57.488 21.422C56.9662 21.422 56.4745 21.3429 56.0129 21.1846C55.5514 21.0462 55.1299 20.8484 54.7486 20.5912C54.3874 20.3143 54.0763 19.9978 53.8154 19.6418C53.5545 19.2659 53.3638 18.8703 53.2434 18.4549H53.0929V27H48.6376V5.48901ZM56.0129 17.8615C56.8558 17.8615 57.5482 17.5747 58.0901 17.0011C58.652 16.4077 58.933 15.6165 58.933 14.6275V11.9275C58.933 10.9385 58.652 10.1571 58.0901 9.58352C57.5482 8.99011 56.8558 8.69341 56.0129 8.69341C55.17 8.69341 54.4676 8.9011 53.9057 9.31648C53.3638 9.71209 53.0929 10.2659 53.0929 10.978V15.5769C53.0929 16.289 53.3638 16.8527 53.9057 17.2681C54.4676 17.6637 55.17 17.8615 56.0129 17.8615Z" fill="#55C2FF"/>
<path d="M72.3152 21.0659C70.7698 21.0659 69.5958 20.6802 68.793 19.9088C68.0104 19.1374 67.619 18.0099 67.619 16.5264V8.9011H65.3913V5.48901H66.5052C67.1073 5.48901 67.5187 5.35055 67.7394 5.07363C67.9602 4.77692 68.0706 4.36154 68.0706 3.82747V1.27582H72.0743V5.48901H75.2051V8.9011H72.0743V17.6538H74.9643V21.0659H72.3152Z" fill="#55C2FF"/>
<path d="M84.5946 21.422C83.4305 21.422 82.387 21.2341 81.4638 20.8582C80.5607 20.4824 79.788 19.9385 79.1458 19.2264C78.5237 18.5143 78.042 17.6538 77.7009 16.6451C77.3597 15.6363 77.1891 14.5088 77.1891 13.2626C77.1891 12.0165 77.3597 10.889 77.7009 9.88022C78.042 8.87143 78.5237 8.02088 79.1458 7.32857C79.788 6.61648 80.5607 6.07253 81.4638 5.6967C82.387 5.32088 83.4305 5.13297 84.5946 5.13297C85.7586 5.13297 86.7921 5.32088 87.6952 5.6967C88.6184 6.07253 89.391 6.61648 90.0132 7.32857C90.6554 8.02088 91.1471 8.87143 91.4883 9.88022C91.8294 10.889 92 12.0165 92 13.2626C92 14.5088 91.8294 15.6363 91.4883 16.6451C91.1471 17.6538 90.6554 18.5143 90.0132 19.2264C89.391 19.9385 88.6184 20.4824 87.6952 20.8582C86.7921 21.2341 85.7586 21.422 84.5946 21.422ZM84.5946 17.9506C85.4776 17.9506 86.1599 17.6835 86.6416 17.1495C87.1232 16.6154 87.3641 15.8538 87.3641 14.8648V11.6901C87.3641 10.7011 87.1232 9.93956 86.6416 9.40549C86.1599 8.87143 85.4776 8.6044 84.5946 8.6044C83.7115 8.6044 83.0292 8.87143 82.5475 9.40549C82.0659 9.93956 81.825 10.7011 81.825 11.6901V14.8648C81.825 15.8538 82.0659 16.6154 82.5475 17.1495C83.0292 17.6835 83.7115 17.9506 84.5946 17.9506Z" fill="#55C2FF"/>
</svg>
